<svg width="202" height="163" viewBox="0 0 202 163" fill="none" xmlns="http://www.w3.org/2000/svg">
<g stroke="black" stroke-width="0.7" stroke-linecap="round" stroke-linejoin="round">
<path d="M1.7 50.7L1.7 17.3L44.3 41.9L44.3 75.4Z" fill="#FBF8F5"/>
<path d="M1.7 17.3L44.3 41.9L71.6 26.1L29 1.5Z" fill="#FBF8F5"/>
<path d="M44.3 75.4L44.3 41.9L71.6 26.1L71.6 59.6Z" fill="#FBF8F5"/>
<path d="M63.4 34.4A10.9 6.3 -60 0 0 52.5 53.3L57.7 56.2A10.9 6.3 -60 0 1 68.5 37.4Z" fill="#FBF8F5"/>
<path d="M55.4 51.2A10.9 6.3 -60 0 1 70.8 42.4A10.9 6.3 -60 0 1 55.4 51.2Z" fill="#FBF8F5"/>
<path d="M64.9 43.7A3.6 2.1 -60 0 0 61.3 49.9L74.9 57.8A3.6 2.1 -60 0 1 78.5 51.5Z" fill="#FBF8F5"/>
<path d="M74.2 56.2A3.6 2.1 -60 0 1 79.3 53.2A3.6 2.1 -60 0 1 74.2 56.2Z" fill="#FBF8F5"/>
<path d="M89.5 28.6A28.9 16.7 -60 0 0 60.5 78.8L70.8 84.7A28.9 16.7 -60 0 1 99.7 34.5Z" fill="#FBF8F5"/>
<path d="M64.8 71.4A28.9 16.7 -60 0 1 105.7 47.8A28.9 16.7 -60 0 1 64.8 71.4Z" fill="#FBF8F5"/>
<path d="M71.9 60.9L67.9 61.3" fill="none"/>
<path d="M79.7 47.3L78.1 43.7" fill="none"/>
<path d="M90.8 40.9L92.4 35.4" fill="none"/>
<path d="M98.7 45.5L102.6 41.3" fill="none"/>
<path d="M98.7 58.3L102.6 57.9" fill="none"/>
<path d="M90.8 71.9L92.4 75.5" fill="none"/>
<path d="M79.7 78.3L78.1 83.8" fill="none"/>
<path d="M71.9 73.7L67.9 77.9" fill="none"/>
<path d="M81.8 61.6A4.8 2.8 -60 0 1 88.7 57.6A4.8 2.8 -60 0 1 81.8 61.6Z" fill="#FBF8F5"/>
<g data-anim="travel">
<path d="M60.5 84.7L72.5 91.6L79.3 87.7L67.3 80.8Z" fill="#FBF8F5"/>
<path d="M60.5 90.6L60.5 84.7L72.5 91.6L72.5 97.5Z" fill="#FBF8F5"/>
<path d="M72.5 97.5L72.5 91.6L79.3 87.7L79.3 93.6Z" fill="#FBF8F5"/>
<path d="M74.2 91.6L82.7 96.5L86.1 94.6L77.6 89.6Z" fill="#FBF8F5"/>
<path d="M74.2 95.6L74.2 91.6L82.7 96.5L82.7 100.5Z" fill="#FBF8F5"/>
<path d="M82.7 100.5L82.7 96.5L86.1 94.6L86.1 98.5Z" fill="#FBF8F5"/>
</g>
<path d="M117.1 116.7A39.8 23 0 0 1 196.7 116.7L196.7 121.7A39.8 23 0 0 0 117.1 121.7Z" fill="#FBF8F5"/>
<path d="M185.1 137.9A39.8 23 0 0 1 128.8 105.4A39.8 23 0 0 1 185.1 137.9Z" fill="#FBF8F5"/>
<path d="M144.8 112.8L144.8 121.7A12.1 7 0 0 0 169 121.7L169 112.8A12.1 7 0 0 1 144.8 112.8Z" fill="#FBF8F5"/>
<path d="M165.4 117.7A12.1 7 0 0 1 148.4 107.9A12.1 7 0 0 1 165.4 117.7Z" fill="#FBF8F5"/>
<circle cx="134.3" cy="136.7" r="1"/>
<circle cx="154.2" cy="101.6" r="1"/>
<circle cx="172.2" cy="138.8" r="1"/>
<circle cx="139.1" cy="122.6" r="1"/>
<circle cx="169.3" cy="141.1" r="1"/>
<circle cx="179.1" cy="130.7" r="1"/>
<circle cx="132.6" cy="114.3" r="1"/>
<circle cx="152.9" cy="103.4" r="1"/>
<circle cx="177.5" cy="113.5" r="1"/>
<circle cx="129.8" cy="110.4" r="1"/>
<circle cx="130.8" cy="122.8" r="1"/>
<circle cx="163.4" cy="139.4" r="1"/>
<circle cx="179.9" cy="118.2" r="1"/>
<circle cx="145" cy="141.2" r="1"/>
<circle cx="157.4" cy="136.5" r="1"/>
<circle cx="140.4" cy="116.3" r="1"/>
<circle cx="158.9" cy="138.3" r="1"/>
<circle cx="171.7" cy="115.3" r="1"/>
<path d="M144.1 108.4L150.9 112.3L155.2 109.8L148.4 105.9Z" fill="#FBF8F5"/>
<path d="M144.1 111.3L144.1 108.4L150.9 112.3L150.9 115.3Z" fill="#FBF8F5"/>
<path d="M150.9 115.3L150.9 112.3L155.2 109.8L155.2 112.8Z" fill="#FBF8F5"/>
<path d="M148.4 131.5L155.2 135.4L158.6 133.5L151.8 129.5Z" fill="#FBF8F5"/>
<path d="M148.4 134.5L148.4 131.5L155.2 135.4L155.2 138.4Z" fill="#FBF8F5"/>
<path d="M155.2 138.4L155.2 135.4L158.6 133.5L158.6 136.4Z" fill="#FBF8F5"/>
<path d="M113.5 116.7L113.5 136.4A43.4 25.1 0 0 0 200.3 136.4L200.3 116.7A43.4 25.1 0 0 1 113.5 116.7Z" fill="#FBF8F5"/>
<path d="M187.6 134.5A43.4 25.1 0 0 1 126.2 99A43.4 25.1 0 0 1 187.6 134.5ZM185.1 133A39.8 23 0 0 1 128.8 100.5A39.8 23 0 0 1 185.1 133Z" fill="#FBF8F5" fill-rule="evenodd"/>
</g>
</svg>
