<svg width="48" height="47" viewBox="0 0 48 47" fill="none" xmlns="http://www.w3.org/2000/svg">
<g filter="url(#filter0_d_112_99087)">
<path d="M19.9944 33.5278L10.5744 9.87319C10.2562 9.07407 11.0285 8.27268 11.8388 8.56111L36.6145 17.3796C37.5002 17.6948 37.5009 18.9472 36.6155 19.2634L25.7153 23.1563C25.4259 23.2597 25.2001 23.4904 25.1029 23.7819L21.8722 33.4741C21.5773 34.3586 20.3394 34.394 19.9944 33.5278Z" fill="#B87333"/>
<path d="M19.9944 33.5278L10.5744 9.87319C10.2562 9.07407 11.0285 8.27268 11.8388 8.56111L36.6145 17.3796C37.5002 17.6948 37.5009 18.9472 36.6155 19.2634L25.7153 23.1563C25.4259 23.2597 25.2001 23.4904 25.1029 23.7819L21.8722 33.4741C21.5773 34.3586 20.3394 34.394 19.9944 33.5278Z" stroke="white" stroke-linecap="round"/>
</g>
<defs>
<filter id="filter0_d_112_99087" x="0" y="0" width="47.7791" height="46.658" filterUnits="userSpaceOnUse" color-interpolation-filters="sRGB">
<feFlood flood-opacity="0" result="BackgroundImageFix"/>
<feColorMatrix in="SourceAlpha" type="matrix" values="0 0 0 0 0 0 0 0 0 0 0 0 0 0 0 0 0 0 127 0" result="hardAlpha"/>
<feOffset dy="2"/>
<feGaussianBlur stdDeviation="5"/>
<feComposite in2="hardAlpha" operator="out"/>
<feColorMatrix type="matrix" values="0 0 0 0 0.8 0 0 0 0 0.8 0 0 0 0 0.8 0 0 0 0.35 0"/>
<feBlend mode="normal" in2="BackgroundImageFix" result="effect1_dropShadow_112_99087"/>
<feBlend mode="normal" in="SourceGraphic" in2="effect1_dropShadow_112_99087" result="shape"/>
</filter>
</defs>
</svg>
